<svg width="104" height="94" viewBox="0 0 104 94" fill="none" xmlns="http://www.w3.org/2000/svg">
<path d="M4.76701 4.43382C7.39252 1.80831 10.9535 0.333313 14.6665 0.333313H37.9998C39.5602 0.333313 41.0172 1.11312 41.8827 2.41138L49.8307 14.3333H89.3332C93.0462 14.3333 96.6071 15.8083 99.2327 18.4338C101.858 21.0593 103.333 24.6203 103.333 28.3333V79.6666C103.333 83.3797 101.858 86.9406 99.2327 89.5661C96.6072 92.1917 93.0462 93.6667 89.3332 93.6667H14.6665C10.9535 93.6667 7.39252 92.1917 4.76701 89.5661C2.1415 86.9406 0.666504 83.3797 0.666504 79.6666V14.3333C0.666504 10.6203 2.1415 7.05933 4.76701 4.43382Z" fill="#E8E8E8"/>
<path fill-rule="evenodd" clip-rule="evenodd" d="M52.0002 37.6665C54.5775 37.6665 56.6668 39.7558 56.6668 42.3332V70.3332C56.6668 72.9105 54.5775 74.9998 52.0002 74.9998C49.4228 74.9998 47.3335 72.9105 47.3335 70.3332V42.3332C47.3335 39.7558 49.4228 37.6665 52.0002 37.6665Z" fill="white"/>
<path fill-rule="evenodd" clip-rule="evenodd" d="M33.3335 56.3332C33.3335 53.7558 35.4228 51.6665 38.0002 51.6665H66.0002C68.5775 51.6665 70.6668 53.7558 70.6668 56.3332C70.6668 58.9105 68.5775 60.9998 66.0002 60.9998H38.0002C35.4228 60.9998 33.3335 58.9105 33.3335 56.3332Z" fill="white"/>
</svg>
