<svg width="20" height="20" viewBox="0 0 20 20" fill="none" xmlns="http://www.w3.org/2000/svg">
<path d="M9.55026 12.8537C8.31675 12.6601 7.33995 11.6832 7.14632 10.4498L5.66823 8.97168C5.59003 9.30453 5.54956 9.64895 5.54956 10.0001C5.54956 12.454 7.54597 14.4505 9.99995 14.4505C10.3503 14.4505 10.6948 14.4098 11.0279 14.3313L9.55026 12.8537Z" fill="#B4B0BB"/>
<path d="M19.3767 10.901C19.4833 10.7619 19.6811 10.4706 19.7032 10.4378L19.9999 9.99978L19.7032 9.56186C19.681 9.52908 19.4833 9.23783 19.3767 9.09881C18.8791 8.44967 17.7137 6.92947 16.107 5.59967C14.095 3.93443 12.0403 3.09006 9.99992 3.09006C8.51606 3.09006 7.01641 3.54064 5.5341 4.42986L1.12422 0.0200195L0.0200806 1.12416L18.8756 19.9797L19.9798 18.8755L15.7723 14.6681C17.5589 13.2714 18.8521 11.5853 19.3767 10.901ZM12.5189 11.4147L11.4764 10.3722C11.5063 10.253 11.5224 10.1283 11.5224 9.99986C11.5224 9.159 10.8407 8.47736 9.99988 8.47736C9.87145 8.47736 9.74676 8.49346 9.62762 8.52338L8.58512 7.48088C9.01301 7.23994 9.49762 7.111 9.99988 7.111C11.5928 7.111 12.8887 8.40693 12.8887 9.99982C12.8888 10.5031 12.7598 10.9872 12.5189 11.4147ZM13.6507 12.5465C14.1702 11.8047 14.4503 10.9229 14.4503 9.99986C14.4503 7.54592 12.4539 5.54947 9.99992 5.54947C9.07887 5.54947 8.19598 5.8301 7.45363 6.34939L6.67793 5.57369C7.79957 4.96143 8.91367 4.65158 9.99988 4.65158C12.6419 4.65158 15.367 6.45107 18.0998 9.9999C17.5314 10.7409 16.3203 12.3 14.6592 13.5551L13.6507 12.5465Z" fill="#B4B0BB"/>
<path d="M11.7562 15.0855C11.165 15.2601 10.5786 15.3483 10 15.3483C7.35805 15.3483 4.63297 13.5488 1.90012 10C2.29234 9.48877 3.07984 8.47424 4.14 7.46936L3.03539 6.36475C1.8677 7.47635 1.02359 8.57682 0.623203 9.09904C0.51668 9.23807 0.318984 9.52928 0.296758 9.56209L0 9.99994L0.29668 10.4379C0.318867 10.4706 0.516602 10.762 0.623203 10.9011C1.12086 11.5503 2.28629 13.0704 3.89293 14.4002C5.90488 16.0655 7.95961 16.9098 10 16.9098C10.9904 16.9098 11.9877 16.7091 12.9821 16.3114L11.7562 15.0855Z" fill="#B4B0BB"/>
</svg>
